<svg
			viewBox="0 0 30 30"
			xmlns="http://www.w3.org/2000/svg"
			class="hidden dark:inline dark:fill-surface-0 dark:h-8 dark:w-fit"
		>
			<path
				fill="white"
				d="M26.8844 14.5C27.5005 14.5 28.0045 13.9997 27.9555 13.3856C27.7658 11.0094 26.9717 8.71425 25.6405 6.722C24.1022 4.41972 21.9157 2.62531 19.3575 1.56569C16.7994 0.506066 13.9844 0.22882 11.2687 0.769012C8.55298 1.3092 6.05843 2.64257 4.1005 4.6005C2.14257 6.55843 0.809203 9.05298 0.269012 11.7687C-0.27118 14.4844 0.00606599 17.2994 1.06569 19.8575C2.12531 22.4157 3.91972 24.6022 6.222 26.1405C8.21425 27.4717 10.5094 28.2658 12.8856 28.4555C13.4997 28.5045 14 28.0005 14 27.3844V24.0155C14 23.3994 13.4983 22.9076 12.8877 22.826C11.6208 22.6567 10.4041 22.1998 9.33319 21.4843C7.95182 20.5613 6.87517 19.2494 6.2394 17.7145C5.60362 16.1796 5.43728 14.4906 5.76139 12.8612C6.08551 11.2318 6.88553 9.73504 8.06028 8.56028C9.23504 7.38553 10.7318 6.58551 12.3612 6.26139C13.9906 5.93728 15.6796 6.10362 17.2145 6.7394C18.7494 7.37517 20.0613 8.45182 20.9843 9.83319C21.6998 10.9041 22.1567 12.1208 22.326 13.3877C22.4076 13.9983 22.8994 14.5 23.5155 14.5H26.8844Z"
			></path>
			<path
				fill="white"
				d="M20.5013 15.8426C20.5077 15.8118 20.484 15.7829 20.4525 15.7829H16.3982C15.7821 15.7829 15.2826 16.2823 15.2826 16.8984V20.9526C15.2826 20.9841 15.3115 21.0077 15.3423 21.0014C17.9308 20.4697 19.9695 18.431 20.5013 15.8426Z"
			></path>
			<path
				fill="white"
				d="M22.2952 15.7829C22.2474 15.7829 22.2067 15.818 22.1989 15.8652C21.621 19.3613 18.8611 22.1212 15.3649 22.6989C15.3177 22.7067 15.2826 22.7474 15.2826 22.7953V27.3845C15.2826 28.0006 15.7821 28.5 16.3982 28.5H18.6292C19.2453 28.5 19.7448 28.0006 19.7448 27.3845V23.0905C19.7448 23.0727 19.7663 23.0638 19.7789 23.0764L24.4655 27.763C24.9011 28.1986 25.6075 28.1986 26.0431 27.763L27.2627 26.5434C27.6983 26.1077 27.6983 25.4014 27.2627 24.9658L22.5761 20.2792C22.5635 20.2666 22.5724 20.245 22.5902 20.245H26.8842C27.5003 20.245 27.9997 19.7456 27.9997 19.1295V16.8984C27.9997 16.2823 27.5003 15.7829 26.8842 15.7829H22.2952Z"
			></path>
		</svg>
