<svg viewBox="0 0 122 29" xmlns="http://www.w3.org/2000/svg" class="prefix__hidden prefix__dark:inline prefix__dark:fill-surface-0 prefix__dark:h-8 prefix__dark:w-fit"><path fill="#fff" d="M26.884 14.5c.616 0 1.12-.5 1.072-1.114a14 14 0 10-15.07 15.07C13.5 28.505 14 28 14 27.384v-3.369c0-.616-.502-1.107-1.112-1.189A8.401 8.401 0 018.06 8.56a8.4 8.4 0 0114.266 4.828c.082.61.573 1.112 1.19 1.112h3.368z"/><path fill="#fff" d="M20.501 15.843a.05.05 0 00-.049-.06h-4.054c-.616 0-1.115.5-1.115 1.115v4.055a.05.05 0 00.06.048 6.645 6.645 0 005.158-5.158z"/><path fill="#fff" d="M22.295 15.783a.098.098 0 00-.096.082 8.318 8.318 0 01-6.834 6.834.098.098 0 00-.082.096v4.59c0 .616.5 1.115 1.115 1.115h2.231c.616 0 1.116-.5 1.116-1.116V23.09a.02.02 0 01.034-.014l4.686 4.687a1.116 1.116 0 001.578 0l1.22-1.22a1.116 1.116 0 000-1.577l-4.687-4.687a.02.02 0 01.014-.034h4.294c.616 0 1.116-.5 1.116-1.116V16.9c0-.617-.5-1.116-1.116-1.116h-4.589z"/></svg>